<svg width="46.354" height="85.254" viewBox="0 0 46.354 85.254" xmlns="http://www.w3.org/2000/svg">
    <g id="svgGroup" stroke-linecap="round" fill-rule="evenodd" font-size="9pt" stroke="#000" stroke-width="0.25mm"
        style="stroke:#000;stroke-width:0.25mm;fill:#000">
        <path
            d="M 25.26 43.164 L 9.831 43.164 Q 10.215 43.836 10.93 45.595 A 70.963 70.963 0 0 1 10.954 45.654 A 179.401 179.401 0 0 1 11.698 47.522 A 214.24 214.24 0 0 1 12.467 49.512 Q 13.249 51.563 13.883 53.418 Q 14.468 55.127 14.68 55.924 A 9.219 9.219 0 0 1 14.714 56.055 L 14.714 56.494 L 14.714 57.52 L 14.714 58.74 L 14.714 59.668 A 17.606 17.606 0 0 0 14.72 60.142 Q 14.726 60.353 14.737 60.589 A 34.844 34.844 0 0 0 14.762 61.084 A 29.037 29.037 0 0 1 14.811 62.738 A 31.614 31.614 0 0 1 14.811 62.793 A 7.437 7.437 0 0 1 14.616 64.502 A 2.647 2.647 0 0 1 14.335 65.226 A 2.205 2.205 0 0 1 13.835 65.82 Q 13.835 65.898 13.773 65.914 A 0.144 0.144 0 0 1 13.737 65.918 L 13.542 65.918 A 0.505 0.505 0 0 1 13.469 65.912 Q 13.431 65.907 13.388 65.896 A 1.261 1.261 0 0 1 13.298 65.869 A 1.274 1.274 0 0 0 13.211 65.843 Q 13.166 65.832 13.128 65.826 A 0.507 0.507 0 0 0 13.053 65.82 Q 12.489 64.88 11.473 62.718 A 106.834 106.834 0 0 1 11.393 62.549 A 223.988 223.988 0 0 1 10.407 60.41 Q 9.742 58.951 9.001 57.275 Q 7.682 54.297 6.413 51.123 A 752.391 752.391 0 0 1 5.204 48.083 A 566.805 566.805 0 0 1 4.118 45.313 L 2.409 40.918 A 167.051 167.051 0 0 1 2.249 40.504 Q 1.775 39.278 1.73 39.09 A 0.14 0.14 0 0 1 1.725 39.063 Q 1.725 38.738 1.793 38.177 A 18.702 18.702 0 0 1 1.823 37.939 A 6.915 6.915 0 0 1 2.165 36.523 A 3.113 3.113 0 0 1 2.897 35.352 A 1.373 1.373 0 0 1 3.876 34.945 Q 3.993 34.943 4.118 34.955 A 2.225 2.225 0 0 1 4.167 34.961 A 20.364 20.364 0 0 0 7.691 37.108 A 15.83 15.83 0 0 0 11.344 38.33 A 37.918 37.918 0 0 0 16.634 38.991 A 45.379 45.379 0 0 0 19.206 39.063 A 22.188 22.188 0 0 0 24.076 38.55 A 17.579 17.579 0 0 0 28.337 37.012 A 21.195 21.195 0 0 0 35.026 31.641 A 23.278 23.278 0 0 0 38.723 25.271 A 27.19 27.19 0 0 0 39.225 23.877 Q 40.69 19.434 40.69 14.648 L 40.69 13.574 A 28.68 28.68 0 0 0 40.678 12.756 A 37.178 37.178 0 0 0 40.641 11.865 A 35.706 35.706 0 0 1 40.599 10.744 A 30.135 30.135 0 0 1 40.592 10.107 L 40.592 9.082 A 11.357 11.357 0 0 0 39.577 6.998 A 12.618 12.618 0 0 0 39.567 6.982 Q 38.932 5.957 38.249 4.98 L 37.467 4.98 A 11.31 11.31 0 0 1 36.955 4.968 A 14.941 14.941 0 0 1 36.393 4.932 A 14.941 14.941 0 0 0 35.832 4.895 A 11.31 11.31 0 0 0 35.319 4.883 L 34.635 4.883 A 31.268 31.268 0 0 0 27.683 5.689 A 35.888 35.888 0 0 0 26.042 6.104 A 46.407 46.407 0 0 0 17.497 9.424 Q 13.346 11.523 9.684 14.355 Q 6.022 17.188 3.288 20.41 A 3.024 3.024 0 0 1 3.123 20.349 Q 2.848 20.239 2.409 20.02 A 5.592 5.592 0 0 1 1.695 19.59 A 7.051 7.051 0 0 1 1.237 19.238 A 6.299 6.299 0 0 1 0.64 18.674 A 5.117 5.117 0 0 1 0.26 18.213 A 1.621 1.621 0 0 1 0.108 17.961 Q -0.084 17.56 0.065 17.188 Q 0.456 15.234 2.751 13.184 A 29.112 29.112 0 0 1 5.29 11.169 Q 6.681 10.181 8.317 9.229 Q 11.589 7.324 15.641 5.664 A 109.098 109.098 0 0 1 23.649 2.734 A 80.626 80.626 0 0 1 28.191 1.416 A 64.763 64.763 0 0 1 31.12 0.732 A 44.521 44.521 0 0 1 33.398 0.315 Q 34.484 0.148 35.426 0.069 A 18.773 18.773 0 0 1 36.979 0 A 17.213 17.213 0 0 1 37.256 0.003 Q 37.663 0.009 38.372 0.033 A 179.488 179.488 0 0 1 38.835 0.049 Q 40.202 0.098 40.592 0.098 A 7.698 7.698 0 0 1 42.656 1.833 A 9.025 9.025 0 0 1 42.985 2.246 A 15.256 15.256 0 0 1 44.65 5.067 A 16.917 16.917 0 0 1 44.743 5.273 Q 45.475 6.934 45.915 8.643 A 14.084 14.084 0 0 1 46.292 10.722 A 11.761 11.761 0 0 1 46.354 11.914 Q 46.354 16.309 45.133 21.68 A 39.776 39.776 0 0 1 41.325 31.836 A 26.625 26.625 0 0 1 34.733 39.893 A 14.442 14.442 0 0 1 25.601 43.161 A 18.058 18.058 0 0 1 25.26 43.164 Z M 9.814 79.129 A 6.969 6.969 0 0 0 9.635 80.762 A 6.432 6.432 0 0 0 9.741 81.962 Q 10.366 85.254 14.714 85.254 Q 15.885 85.254 16.96 84.717 A 6.117 6.117 0 0 0 18.815 83.301 Q 19.596 82.422 20.036 81.299 A 6.248 6.248 0 0 0 20.475 79.004 Q 20.475 78.925 20.507 78.555 A 51.649 51.649 0 0 1 20.524 78.369 A 11.31 11.31 0 0 0 20.545 78.098 A 12.805 12.805 0 0 0 20.573 77.246 Q 20.573 76.66 20.329 76.123 A 1.451 1.451 0 0 0 20.201 75.895 A 0.941 0.941 0 0 0 19.596 75.488 A 4.32 4.32 0 0 0 19.515 75.473 Q 19.151 75.407 18.479 75.342 A 38.826 38.826 0 0 0 17.936 75.293 Q 16.764 75.195 16.374 75.195 A 10.418 10.418 0 0 0 15.564 75.226 A 8.509 8.509 0 0 0 11.686 76.465 A 4.132 4.132 0 0 0 9.814 79.129 Z"
            id="0" vector-effect="non-scaling-stroke" />
    </g>
</svg>