<svg width="57.207" height="39.16" viewBox="0 0 57.207 39.16" xmlns="http://www.w3.org/2000/svg">
    <g id="svgGroup" stroke-linecap="round" font-size="9pt" stroke="#000" stroke-width="0.25mm"
        style="stroke:#000;stroke-width:0.25mm">
        <path
            d="M 23.808 0 L 25.566 0 Q 27.51 0 28.854 0.76 A 4.92 4.92 0 0 1 29.131 0.928 A 6.874 6.874 0 0 1 31.377 3.32 A 10.059 10.059 0 0 1 32.318 5.628 A 12.122 12.122 0 0 1 32.548 6.641 A 20.444 20.444 0 0 1 32.89 10.352 A 22.447 22.447 0 0 1 32.353 15.283 A 148.322 148.322 0 0 1 31.181 20.117 Q 30.547 22.559 30.009 24.951 A 22.574 22.574 0 0 0 29.481 29.305 A 25.434 25.434 0 0 0 29.472 29.981 L 29.472 30.567 A 0.765 0.765 0 0 1 29.514 30.676 Q 29.579 30.883 29.661 31.354 A 21.031 21.031 0 0 1 29.716 31.69 A 21.264 21.264 0 0 0 29.77 32.012 Q 29.88 32.649 29.959 32.81 A 0.342 0.342 0 0 0 29.961 32.813 Q 30.143 32.813 30.839 32.855 A 93.602 93.602 0 0 1 30.937 32.861 A 80.657 80.657 0 0 0 31.21 32.878 Q 31.712 32.908 31.886 32.91 A 2.057 2.057 0 0 0 31.914 32.91 A 36.242 36.242 0 0 0 33.818 32.861 A 5.623 5.623 0 0 0 35.117 32.633 A 6.865 6.865 0 0 0 35.722 32.422 L 54.277 23.828 A 0.651 0.651 0 0 0 54.334 23.825 Q 54.435 23.816 54.619 23.779 A 5.124 5.124 0 0 1 54.728 23.759 Q 54.879 23.732 54.954 23.731 A 0.422 0.422 0 0 1 54.961 23.731 A 2.671 2.671 0 0 1 55.724 23.835 A 2.127 2.127 0 0 1 56.572 24.317 A 1.942 1.942 0 0 1 57.188 25.555 A 2.721 2.721 0 0 1 57.207 25.879 A 8.769 8.769 0 0 1 57.181 26.556 A 7.557 7.557 0 0 1 57.158 26.807 A 0.981 0.981 0 0 1 56.999 27.234 Q 56.911 27.37 56.776 27.501 A 2.199 2.199 0 0 1 56.621 27.637 Q 55.948 28.117 54.189 28.975 A 57.054 57.054 0 0 1 54.131 29.004 A 131.127 131.127 0 0 0 52.263 29.932 A 162.165 162.165 0 0 0 50.273 30.957 A 367.281 367.281 0 0 0 48.283 32.007 A 306.913 306.913 0 0 0 46.416 33.008 A 58.651 58.651 0 0 1 45.576 33.454 Q 44.439 34.044 43.854 34.268 A 5.151 5.151 0 0 1 43.828 34.277 A 20.497 20.497 0 0 1 41.858 35.261 A 24.616 24.616 0 0 1 40.8 35.694 A 83.553 83.553 0 0 1 37.382 36.914 A 29.201 29.201 0 0 1 34.344 37.753 A 26.708 26.708 0 0 1 33.916 37.842 Q 32.357 38.154 31.082 38.181 A 11.304 11.304 0 0 1 30.84 38.184 Q 29.207 38.184 28.026 37.761 A 5.181 5.181 0 0 1 27.324 37.451 Q 25.957 36.719 25.273 35.498 Q 24.59 34.277 24.345 32.569 A 13.732 13.732 0 0 1 24.21 30.624 A 15.474 15.474 0 0 1 24.297 29.004 A 454.739 454.739 0 0 1 22.27 30.615 A 553.63 553.63 0 0 1 20.097 32.324 A 45.998 45.998 0 0 1 15.41 35.547 Q 12.968 37.012 10.429 38.086 A 13.169 13.169 0 0 1 5.254 39.16 Q 3.789 39.16 2.617 38.428 A 3.667 3.667 0 0 1 1.307 36.988 A 5.115 5.115 0 0 1 0.957 36.133 L 0.957 34.668 L 0.957 33.106 Q -0.703 27.246 0.517 21.582 A 27.857 27.857 0 0 1 4.912 11.377 Q 8.086 6.836 13.017 3.76 Q 17.949 0.684 23.808 0 Z M 6.23 31.445 L 6.23 34.082 A 9.078 9.078 0 0 0 8.366 33.811 Q 9.715 33.485 11.211 32.764 A 32.679 32.679 0 0 0 15.589 30.202 A 36.951 36.951 0 0 0 16.582 29.492 A 40.315 40.315 0 0 0 20.822 25.887 A 36.713 36.713 0 0 0 21.367 25.342 A 40.059 40.059 0 0 0 22.834 23.764 Q 23.498 23.007 24.027 22.311 A 18.433 18.433 0 0 0 24.687 21.387 A 24.354 24.354 0 0 1 25.517 15.772 A 20.876 20.876 0 0 0 26.25 10.254 Q 26.25 10.059 26.201 9.668 A 10.5 10.5 0 0 1 26.179 9.485 Q 26.152 9.229 26.152 9.082 A 10.531 10.531 0 0 0 25.469 8.548 Q 24.779 8.056 24.228 7.875 A 2.365 2.365 0 0 0 24.004 7.813 Q 23.165 7.626 21.792 7.618 A 21.371 21.371 0 0 0 21.66 7.617 L 20.83 7.617 A 6.509 6.509 0 0 0 20.573 7.622 Q 20.206 7.637 20.043 7.697 A 0.424 0.424 0 0 0 20 7.715 Q 19.414 8.203 18.047 9.522 A 108.356 108.356 0 0 0 16.643 10.901 A 132.807 132.807 0 0 0 15.166 12.402 A 1958.994 1958.994 0 0 0 13.701 13.916 A 1598.78 1598.78 0 0 0 12.334 15.332 A 454.65 454.65 0 0 1 11.761 15.925 Q 10.901 16.814 10.527 17.188 A 0.116 0.116 0 0 0 10.475 17.204 Q 10.369 17.26 10.152 17.511 A 5.284 5.284 0 0 0 10.136 17.529 A 8.512 8.512 0 0 0 9.871 17.857 Q 9.738 18.028 9.597 18.225 A 15.315 15.315 0 0 0 9.502 18.36 A 12.083 12.083 0 0 0 9.184 18.836 A 9.36 9.36 0 0 0 8.916 19.287 Q 8.683 19.707 8.583 19.993 A 2.145 2.145 0 0 0 8.574 20.02 L 6.23 31.445 Z"
            id="0" vector-effect="non-scaling-stroke" />
    </g>
</svg>