<svg width="32.813" height="49.219" viewBox="0 0 32.813 49.219" xmlns="http://www.w3.org/2000/svg">
    <g id="svgGroup" stroke-linecap="round" fill-rule="evenodd" font-size="9pt" stroke="#000" stroke-width="0.25mm"
        style="stroke:#000;stroke-width:0.25mm;fill:#000">
        <path
            d="M 0 37.305 L 1.367 28.613 Q 1.458 28.161 1.883 27.039 A 40.911 40.911 0 0 1 1.953 26.855 A 167.963 167.963 0 0 0 2.454 25.537 A 206.319 206.319 0 0 0 2.979 24.121 A 206.319 206.319 0 0 1 3.503 22.705 A 167.963 167.963 0 0 1 4.004 21.387 Q 4.405 20.343 4.609 19.827 A 45.126 45.126 0 0 1 4.688 19.629 A 13.249 13.249 0 0 1 4.975 18.92 Q 5.407 17.945 5.811 17.578 A 1.433 1.433 0 0 1 6.25 17.315 Q 6.688 17.141 7.381 17.102 A 7.563 7.563 0 0 1 7.813 17.09 A 3.493 3.493 0 0 1 8.547 17.161 Q 8.978 17.254 9.289 17.468 A 1.66 1.66 0 0 1 9.863 18.164 A 5.238 5.238 0 0 1 10.244 19.416 Q 10.345 19.979 10.351 20.618 A 8.685 8.685 0 0 1 10.352 20.703 A 15.291 15.291 0 0 1 10.107 23.492 A 12.55 12.55 0 0 1 9.619 25.342 Q 8.887 27.441 8.008 29.541 A 46.415 46.415 0 0 0 6.772 32.855 A 53.51 53.51 0 0 0 6.396 34.033 Q 5.664 36.426 5.664 39.551 L 5.664 40.674 A 11.072 11.072 0 0 0 5.762 42.139 A 4.24 4.24 0 0 0 5.902 42.802 A 3.175 3.175 0 0 0 6.152 43.408 Q 6.445 43.945 6.934 43.945 Q 9.473 43.945 12.061 42.92 Q 14.648 41.895 17.139 40.479 Q 19.629 39.063 21.924 37.354 Q 24.066 35.758 25.826 34.546 A 90.667 90.667 0 0 1 26.074 34.375 A 5.879 5.879 0 0 0 26.539 34.009 Q 26.886 33.704 27.1 33.398 Q 27.441 32.91 27.734 32.471 A 3.322 3.322 0 0 1 28.463 31.692 A 4.346 4.346 0 0 1 28.467 31.689 Q 28.868 31.378 29.716 31.35 A 5.189 5.189 0 0 1 29.883 31.348 Q 31.152 31.348 31.982 31.885 A 1.689 1.689 0 0 1 32.67 32.799 Q 32.813 33.223 32.813 33.789 A 12.382 12.382 0 0 1 32.8 34.351 A 9.49 9.49 0 0 1 32.764 34.863 A 1.119 1.119 0 0 1 32.536 35.429 Q 32.429 35.572 32.272 35.705 A 2.159 2.159 0 0 1 32.227 35.742 Q 32.129 36.035 31.494 36.523 A 157.845 157.845 0 0 0 30.515 37.283 A 178.35 178.35 0 0 0 30.176 37.549 A 81.388 81.388 0 0 1 29.517 38.062 A 62.956 62.956 0 0 1 28.906 38.525 A 8.686 8.686 0 0 1 28.632 38.724 Q 28.248 38.989 28.028 39.062 A 0.202 0.202 0 0 0 27.974 39.073 Q 27.845 39.111 27.514 39.293 A 10.322 10.322 0 0 0 27.49 39.307 Q 27.068 39.541 26.961 39.55 A 0.096 0.096 0 0 1 26.953 39.551 L 26.709 39.795 Q 26.563 39.941 26.563 40.039 A 88.94 88.94 0 0 1 23.581 42.211 A 105.141 105.141 0 0 1 22.119 43.213 A 45.09 45.09 0 0 1 17.09 46.143 Q 14.453 47.461 11.67 48.34 A 18.516 18.516 0 0 1 7.008 49.197 A 17.104 17.104 0 0 1 6.152 49.219 A 7.216 7.216 0 0 1 4.797 49.1 Q 4.005 48.948 3.391 48.604 A 3.656 3.656 0 0 1 2.588 47.998 A 7.079 7.079 0 0 1 1.117 45.817 A 8.805 8.805 0 0 1 0.781 44.922 A 15.33 15.33 0 0 1 0.099 41.048 A 17.057 17.057 0 0 1 0.098 41.016 A 92.05 92.05 0 0 1 0.024 39.063 A 66.974 66.974 0 0 1 0 37.305 Z M 6.095 2.147 A 7.043 7.043 0 0 0 6.055 2.93 Q 6.055 3.906 6.543 4.639 Q 6.894 5.165 7.598 5.313 A 2.944 2.944 0 0 0 8.203 5.371 A 2.68 2.68 0 0 0 8.878 5.283 Q 9.34 5.163 9.809 4.881 A 5.477 5.477 0 0 0 10.596 4.297 A 5.363 5.363 0 0 0 10.707 4.196 Q 11.089 3.84 11.34 3.464 A 2.685 2.685 0 0 0 11.816 1.953 A 3.423 3.423 0 0 0 11.813 1.797 Q 11.799 1.484 11.726 1.233 A 1.28 1.28 0 0 0 10.938 0.342 A 5.475 5.475 0 0 0 10.759 0.276 A 4.762 4.762 0 0 0 9.18 0 Q 7.422 0 6.738 0.586 A 1.378 1.378 0 0 0 6.477 0.891 Q 6.185 1.346 6.095 2.147 Z"
            id="0" vector-effect="non-scaling-stroke" />
    </g>
</svg>