<svg width="47.949" height="56.738" viewBox="0 0 47.949 56.738" xmlns="http://www.w3.org/2000/svg">
    <g id="svgGroup" stroke-linecap="round" fill-rule="evenodd" font-size="9pt" stroke="#000" stroke-width="0.25mm"
        style="stroke:#000;stroke-width:0.25mm;fill:#000">
        <path
            d="M 3.906 41.895 L 9.18 28.125 L 14.355 8.985 L 18.652 0.488 A 0.848 0.848 0 0 1 18.815 0.223 Q 18.979 0.046 19.241 0.01 A 1.038 1.038 0 0 1 19.385 0 L 20.41 0 Q 22.461 0 22.949 1.514 A 9.962 9.962 0 0 1 23.438 4.59 A 34.65 34.65 0 0 1 22.449 12.967 A 31.283 31.283 0 0 1 21.68 15.576 A 64.372 64.372 0 0 1 17.188 25.684 A 21.528 21.528 0 0 1 20.301 24.103 A 19.684 19.684 0 0 1 20.752 23.926 A 10.756 10.756 0 0 1 24.418 23.244 A 12.204 12.204 0 0 1 24.609 23.242 A 11.399 11.399 0 0 1 26.24 23.352 Q 27.098 23.476 27.808 23.741 A 5.597 5.597 0 0 1 28.711 24.17 A 9.612 9.612 0 0 1 29.91 25.024 Q 30.485 25.498 31.085 26.111 A 21.524 21.524 0 0 1 32.031 27.149 Q 32.126 27.339 32.129 28.36 A 22.82 22.82 0 0 1 32.129 28.418 L 32.129 29.785 A 11.928 11.928 0 0 1 30.762 35.352 Q 29.395 37.988 27.246 40.137 Q 25.098 42.285 22.461 43.994 Q 19.824 45.703 17.188 46.582 L 17.188 47.071 A 2.655 2.655 0 0 0 17.773 48.779 A 6.34 6.34 0 0 0 19.141 50.049 Q 19.922 50.586 20.801 50.83 A 6.907 6.907 0 0 0 21.746 51.026 A 5.471 5.471 0 0 0 22.461 51.074 A 52.35 52.35 0 0 0 25.793 50.965 A 59.95 59.95 0 0 0 26.953 50.879 A 31.984 31.984 0 0 0 31.592 50.147 A 29.716 29.716 0 0 0 35.551 48.933 A 27.16 27.16 0 0 0 35.938 48.779 A 14.147 14.147 0 0 0 39.648 46.582 Q 40.173 46.189 40.742 45.486 A 12.609 12.609 0 0 0 41.309 44.727 A 115.63 115.63 0 0 0 43.018 42.188 A 50.428 50.428 0 0 1 43.811 41.009 Q 44.208 40.438 44.58 39.942 Q 45.313 38.965 45.703 38.965 Q 46.774 38.965 47.315 39.821 A 2.415 2.415 0 0 1 47.412 39.99 A 5.004 5.004 0 0 1 47.798 40.941 A 3.828 3.828 0 0 1 47.949 41.992 A 0.8 0.8 0 0 1 47.947 42.047 Q 47.939 42.164 47.901 42.427 A 16.963 16.963 0 0 1 47.9 42.432 Q 47.852 42.774 47.852 42.871 A 30.496 30.496 0 0 1 45.994 46.244 A 22.332 22.332 0 0 1 43.604 49.365 Q 41.211 51.953 38.184 53.467 A 22.783 22.783 0 0 1 33.564 55.161 A 27.551 27.551 0 0 1 31.396 55.615 A 44.178 44.178 0 0 1 27.167 56.111 A 58.38 58.38 0 0 1 23.047 56.25 Q 19.577 56.25 17.07 55.133 A 10.374 10.374 0 0 1 16.455 54.834 Q 13.77 53.418 12.012 50 A 5.283 5.283 0 0 0 11.936 49.732 Q 11.852 49.456 11.716 49.095 A 17.742 17.742 0 0 0 11.67 48.975 L 11.182 47.705 A 6.226 6.226 0 0 0 10.547 46.485 A 2.169 2.169 0 0 0 10.153 46.034 A 1.735 1.735 0 0 0 9.57 45.703 L 4.883 55.664 A 1.435 1.435 0 0 1 4.035 56.459 A 2.15 2.15 0 0 1 3.76 56.543 A 7.95 7.95 0 0 1 3.014 56.683 Q 2.635 56.735 2.292 56.738 A 4.839 4.839 0 0 1 2.246 56.738 A 12.805 12.805 0 0 1 1.395 56.711 A 11.31 11.31 0 0 1 1.123 56.69 A 1.778 1.778 0 0 1 0.392 56.452 A 2.336 2.336 0 0 1 0.098 56.25 A 1.123 1.123 0 0 1 0.06 56.089 Q 0 55.744 0 54.981 L 0 53.711 A 17.167 17.167 0 0 1 1.123 47.608 A 34.309 34.309 0 0 1 3.906 41.895 Z M 26.27 29.004 L 24.414 29.004 A 16.68 16.68 0 0 0 23.006 29.061 A 13.86 13.86 0 0 0 22.217 29.151 A 4.658 4.658 0 0 0 21.056 29.482 A 6.432 6.432 0 0 0 20.117 29.981 Q 19.877 30.221 19.242 30.757 A 58.402 58.402 0 0 1 18.945 31.006 A 37.795 37.795 0 0 0 17.242 32.517 A 41.136 41.136 0 0 0 17.188 32.569 Q 16.309 33.399 15.43 34.18 A 136.175 136.175 0 0 0 15.124 34.452 Q 14.562 34.955 14.383 35.129 A 2.972 2.972 0 0 0 14.355 35.156 Q 14.16 35.449 13.574 36.426 A 10.133 10.133 0 0 0 13.346 36.825 Q 13.032 37.406 12.994 37.712 A 0.646 0.646 0 0 0 12.988 37.793 Q 12.988 38.086 13.281 38.77 A 13.311 13.311 0 0 0 13.916 40.051 A 14.548 14.548 0 0 0 13.965 40.137 A 9.541 9.541 0 0 0 14.472 40.934 A 7.897 7.897 0 0 0 14.795 41.358 A 2.489 2.489 0 0 0 15.012 41.593 Q 15.332 41.895 15.625 41.895 Q 16.008 41.895 16.578 41.661 A 5.292 5.292 0 0 0 16.602 41.651 A 47.037 47.037 0 0 1 17.664 41.223 A 52.097 52.097 0 0 1 17.822 41.162 A 8.187 8.187 0 0 0 18.455 40.889 A 6.267 6.267 0 0 0 18.945 40.625 A 5.451 5.451 0 0 0 19.284 40.405 Q 19.543 40.222 19.727 40.039 A 7.883 7.883 0 0 1 19.904 39.813 Q 20.182 39.469 20.68 38.906 A 63.56 63.56 0 0 1 20.801 38.77 A 68.974 68.974 0 0 1 21.619 37.866 A 84.544 84.544 0 0 1 22.51 36.914 A 948.092 948.092 0 0 0 23.413 35.962 A 806.22 806.22 0 0 0 24.268 35.059 Q 25.047 34.233 25.267 33.839 A 1.265 1.265 0 0 0 25.293 33.789 L 25.635 33.106 L 26.123 32.129 A 12.882 12.882 0 0 0 26.563 31.153 A 24.242 24.242 0 0 1 26.654 30.927 Q 26.782 30.615 26.855 30.469 L 26.855 30.225 L 26.855 29.981 A 3.061 3.061 0 0 0 26.84 29.671 A 2.397 2.397 0 0 0 26.807 29.444 Q 26.767 29.243 26.431 29.076 A 2.16 2.16 0 0 0 26.27 29.004 Z"
            id="0" vector-effect="non-scaling-stroke" />
    </g>
</svg>