<svg width="49.609" height="37.793" viewBox="0 0 49.609 37.793" xmlns="http://www.w3.org/2000/svg">
    <g id="svgGroup" stroke-linecap="round" fill-rule="evenodd" font-size="9pt" stroke="#000" stroke-width="0.25mm"
        style="stroke:#000;stroke-width:0.25mm;fill:#000">
        <path
            d="M 0 36.035 L 0 35.742 L 3.32 16.211 L 3.32 13.477 L 5.273 0.488 A 0.918 0.918 0 0 1 5.615 0.216 Q 5.901 0.077 6.344 0.049 A 3.158 3.158 0 0 1 6.348 0.049 Q 7.024 0.007 7.334 0.001 A 4.824 4.824 0 0 1 7.422 0 A 2.805 2.805 0 0 1 8.09 0.087 Q 8.386 0.16 8.709 0.293 A 6.303 6.303 0 0 1 9.229 0.537 Q 10.254 1.074 10.254 1.953 L 10.254 8.594 Q 10.574 8.353 11.289 7.718 A 66.504 66.504 0 0 0 11.621 7.422 A 149.825 149.825 0 0 1 12.634 6.519 A 180.597 180.597 0 0 1 13.721 5.566 A 180.597 180.597 0 0 0 14.807 4.614 A 149.825 149.825 0 0 0 15.82 3.711 A 28.964 28.964 0 0 0 16.241 3.326 Q 16.82 2.783 17.055 2.486 A 2.147 2.147 0 0 0 17.09 2.441 A 9.156 9.156 0 0 1 18.689 1.286 A 11.322 11.322 0 0 1 19.678 0.781 Q 21.191 0.098 22.559 0.098 A 7.345 7.345 0 0 1 24.436 0.325 A 5.202 5.202 0 0 1 27.002 1.855 A 6.059 6.059 0 0 1 28.535 5.188 A 8.29 8.29 0 0 1 28.613 6.348 Q 28.613 6.524 28.573 6.581 A 0.081 0.081 0 0 1 28.564 6.592 A 0.108 0.108 0 0 0 28.542 6.627 Q 28.518 6.685 28.516 6.809 A 1.44 1.44 0 0 0 28.516 6.836 L 28.516 7.227 L 24.805 23.926 L 24.805 31.836 A 16.702 16.702 0 0 0 28.883 31.31 A 20.985 20.985 0 0 0 31.104 30.615 A 36.347 36.347 0 0 0 37.402 27.539 Q 40.43 25.684 43.066 23.291 A 63.481 63.481 0 0 0 45.532 20.935 A 48.517 48.517 0 0 0 47.656 18.652 L 48.047 18.652 A 1.737 1.737 0 0 1 48.594 18.735 A 1.446 1.446 0 0 1 49.17 19.092 A 1.483 1.483 0 0 1 49.603 20.048 A 1.993 1.993 0 0 1 49.609 20.215 A 6.929 6.929 0 0 1 48.97 23.08 A 9.298 9.298 0 0 1 48.193 24.463 A 18.24 18.24 0 0 1 45.938 27.174 A 22.257 22.257 0 0 1 44.58 28.418 A 31.94 31.94 0 0 1 41.607 30.634 A 39.769 39.769 0 0 1 39.502 31.934 A 53.031 53.031 0 0 1 35.323 34.109 A 45.932 45.932 0 0 1 33.838 34.766 Q 31.055 35.938 28.418 36.621 A 26.39 26.39 0 0 1 26.624 37.024 Q 25.775 37.182 25.027 37.251 A 12.002 12.002 0 0 1 23.926 37.305 A 8.177 8.177 0 0 1 22.792 37.231 Q 22.205 37.149 21.723 36.974 A 3.689 3.689 0 0 1 20.996 36.621 A 4.313 4.313 0 0 1 19.385 34.814 Q 18.848 33.691 18.701 32.324 Q 18.555 30.957 18.555 29.395 L 18.555 28.125 L 22.363 9.18 L 22.363 5.957 A 5.823 5.823 0 0 0 19.76 6.597 Q 18.738 7.103 17.725 8.008 A 21.301 21.301 0 0 0 14.678 11.41 A 25.48 25.48 0 0 0 13.623 12.988 Q 11.816 15.918 10.498 18.945 A 74.49 74.49 0 0 0 9.746 20.732 Q 9.021 22.523 8.62 23.839 A 21.587 21.587 0 0 0 8.594 23.926 Q 8.414 24.555 8.069 26.095 A 142.251 142.251 0 0 0 8.008 26.367 A 80.366 80.366 0 0 0 7.455 29.084 A 92.756 92.756 0 0 0 7.275 30.078 A 504.535 504.535 0 0 0 6.946 31.982 A 429.933 429.933 0 0 0 6.641 33.789 A 158.996 158.996 0 0 0 6.506 34.607 Q 6.323 35.742 6.25 36.328 Q 6.344 36.892 5.94 37.185 A 1 1 0 0 1 5.908 37.207 A 3.046 3.046 0 0 1 5.252 37.535 A 3.776 3.776 0 0 1 4.883 37.646 A 5.015 5.015 0 0 1 3.662 37.793 L 2.637 37.793 A 5.528 5.528 0 0 1 0.886 37.502 A 6.271 6.271 0 0 1 0.879 37.5 A 1.178 1.178 0 0 1 0.088 36.689 Q 0 36.406 0 36.035 Z"
            id="0" vector-effect="non-scaling-stroke" />
    </g>
</svg>