<svg width="48.926" height="36.426" viewBox="0 0 48.926 36.426" xmlns="http://www.w3.org/2000/svg">
    <g id="svgGroup" stroke-linecap="round" fill-rule="evenodd" font-size="9pt" stroke="#000" stroke-width="0.25mm"
        style="stroke:#000;stroke-width:0.25mm;fill:#000">
        <path
            d="M 0.586 24.902 L 0.586 24.512 L 0.586 23.926 L 1.953 17.773 A 108.653 108.653 0 0 1 5.42 11.035 A 28.633 28.633 0 0 1 8.363 6.723 A 25.289 25.289 0 0 1 9.57 5.371 A 18.438 18.438 0 0 1 14.99 1.465 A 14.283 14.283 0 0 1 18.396 0.366 Q 20.264 0 22.461 0 Q 23.331 0 24.631 0.526 A 12.192 12.192 0 0 1 24.658 0.537 A 19.574 19.574 0 0 1 26.883 1.617 A 21.944 21.944 0 0 1 27.295 1.855 A 29.869 29.869 0 0 1 29.163 3.055 A 25.988 25.988 0 0 1 29.736 3.467 Q 30.514 4.042 31.034 4.546 A 6.531 6.531 0 0 1 31.445 4.98 Q 34.473 4.492 35.84 4.443 A 227.472 227.472 0 0 0 36.81 4.407 Q 37.573 4.376 38.184 4.346 A 9.304 9.304 0 0 0 39.329 4.214 A 12.053 12.053 0 0 0 40.283 4.004 Q 41.406 3.711 43.75 2.734 A 11.998 11.998 0 0 1 45.937 2.299 A 10.357 10.357 0 0 1 46.973 2.246 A 1.682 1.682 0 0 1 47.788 2.464 Q 48.023 2.592 48.252 2.797 A 3.158 3.158 0 0 1 48.291 2.832 A 2.111 2.111 0 0 1 48.702 3.34 A 1.713 1.713 0 0 1 48.926 4.199 A 2.584 2.584 0 0 1 48.295 5.896 A 3.295 3.295 0 0 1 48.242 5.957 A 2.919 2.919 0 0 1 46.582 6.934 L 34.375 9.668 L 33.301 10.156 Q 33.203 15.43 30.957 20.215 Q 28.711 25 25 28.613 Q 21.289 32.227 16.406 34.326 Q 11.523 36.426 6.25 36.426 A 9.621 9.621 0 0 1 6.024 36.423 Q 5.68 36.415 5.116 36.384 A 66.851 66.851 0 0 1 4.98 36.377 Q 4.222 36.335 3.9 36.329 A 5.154 5.154 0 0 0 3.809 36.328 A 5.089 5.089 0 0 1 0.94 33.395 A 6.893 6.893 0 0 1 0.83 33.105 Q 0 30.762 0 28.711 A 0.607 0.607 0 0 1 0.003 28.657 Q 0.018 28.503 0.098 28.027 A 96.164 96.164 0 0 0 0.244 27.121 A 108.009 108.009 0 0 0 0.293 26.807 A 49.508 49.508 0 0 1 0.391 26.196 A 38.811 38.811 0 0 1 0.488 25.635 A 13.44 13.44 0 0 0 0.529 25.402 Q 0.586 25.052 0.586 24.902 Z M 16.406 9.668 L 16.309 9.668 L 8.203 18.262 A 3.901 3.901 0 0 0 7.576 19.096 Q 7.318 19.55 7.129 20.117 A 13.771 13.771 0 0 0 6.684 21.821 A 16.328 16.328 0 0 0 6.543 22.656 A 38.954 38.954 0 0 0 6.25 25.391 Q 6.152 26.758 6.152 27.832 L 6.152 29.199 A 18.704 18.704 0 0 0 6.158 29.665 Q 6.174 30.314 6.239 30.619 A 1.416 1.416 0 0 0 6.25 30.664 Q 6.334 31.087 6.858 31.143 A 1.607 1.607 0 0 0 7.031 31.152 L 8.008 31.152 A 15.079 15.079 0 0 0 12.592 30.411 A 19.622 19.622 0 0 0 15.234 29.346 Q 18.945 27.539 21.924 24.658 A 25.258 25.258 0 0 0 26.807 18.115 A 17.083 17.083 0 0 0 28.372 13.865 A 14.639 14.639 0 0 0 28.711 10.742 Q 25.586 10.742 22.461 10.205 A 36.567 36.567 0 0 0 17.558 9.688 A 32.606 32.606 0 0 0 16.406 9.668 Z"
            id="0" vector-effect="non-scaling-stroke" />
    </g>
</svg>