<svg width="18.067" height="10.114" viewBox="0 0 18.067 10.114" xmlns="http://www.w3.org/2000/svg">
    <g id="svgGroup" stroke-linecap="round" fill-rule="evenodd" font-size="9pt" stroke="#000" stroke-width="0.25mm"
        style="stroke:#000;stroke-width:0.25mm;fill:#000">
        <path
            d="M 0.269 4.715 A 4.244 4.244 0 0 0 0 6.25 A 4.141 4.141 0 0 0 0.062 6.985 A 2.687 2.687 0 0 0 1.123 8.74 A 5.949 5.949 0 0 0 2.06 9.307 A 6.841 6.841 0 0 0 3.76 9.863 Q 5.274 10.156 6.934 10.107 Q 8.594 10.059 9.668 10.059 Q 11.231 10.059 12.696 9.668 A 9.173 9.173 0 0 0 12.741 9.656 A 8.14 8.14 0 0 0 15.332 8.447 Q 16.504 7.617 17.285 6.348 A 5.082 5.082 0 0 0 17.906 4.813 A 6.638 6.638 0 0 0 18.067 3.32 Q 18.067 2.745 17.926 2.3 A 2.001 2.001 0 0 0 17.383 1.416 A 4.556 4.556 0 0 0 17.203 1.257 A 4.802 4.802 0 0 0 15.772 0.439 Q 14.844 0.098 13.819 0.049 A 45.128 45.128 0 0 0 12.83 0.012 A 35.76 35.76 0 0 0 11.914 0 A 14.255 14.255 0 0 0 11.198 0.019 Q 10.577 0.05 9.873 0.134 A 28.318 28.318 0 0 0 8.448 0.342 A 22.991 22.991 0 0 0 4.541 1.367 A 11.375 11.375 0 0 0 3.355 1.868 A 9.097 9.097 0 0 0 1.319 3.223 A 3.81 3.81 0 0 0 0.269 4.715 Z M 10.547 5.957 L 10.547 4.785 L 9.912 4.785 A 4.44 4.44 0 0 0 9.315 4.827 A 5.372 5.372 0 0 0 8.985 4.883 A 3.768 3.768 0 0 0 8.222 5.125 A 4.378 4.378 0 0 0 8.008 5.225 A 1.216 1.216 0 0 0 7.697 5.442 A 0.971 0.971 0 0 0 7.422 5.957 L 10.547 5.957 Z"
            id="0" vector-effect="non-scaling-stroke" />
    </g>
</svg>