<svg width="53.669" height="34.821" viewBox="0 0 53.669 34.821" xmlns="http://www.w3.org/2000/svg">
    <g id="svgGroup" stroke-linecap="round" fill-rule="evenodd" font-size="9pt" stroke="#000" stroke-width="0.25mm"
        style="stroke:#000;stroke-width:0.25mm;fill:#000">
        <path
            d="M 32.771 1.465 L 32.771 5.664 A 407.485 407.485 0 0 1 32.099 8.313 A 335.418 335.418 0 0 1 31.452 10.791 Q 30.818 13.184 30.378 15.479 Q 29.939 17.773 29.743 20.117 A 56.339 56.339 0 0 0 29.575 23.161 A 66.85 66.85 0 0 0 29.548 25.098 A 8.978 8.978 0 0 0 30.809 25.002 Q 31.442 24.911 32.154 24.737 A 19.699 19.699 0 0 0 33.308 24.414 A 43.223 43.223 0 0 0 37.19 22.993 A 47.548 47.548 0 0 0 37.751 22.754 A 66.766 66.766 0 0 0 40.701 21.388 A 57.031 57.031 0 0 0 41.95 20.752 A 138.555 138.555 0 0 0 42.878 20.261 Q 44.196 19.556 45.075 19.043 Q 45.232 18.964 45.705 18.57 A 24.188 24.188 0 0 0 45.954 18.359 A 66.777 66.777 0 0 1 46.662 17.761 A 78.935 78.935 0 0 1 47.419 17.139 A 40.41 40.41 0 0 1 48.517 16.277 A 34.596 34.596 0 0 1 48.933 15.967 A 30.888 30.888 0 0 0 49.227 15.748 Q 49.708 15.387 49.86 15.234 Q 50.056 15.039 50.837 14.697 A 22.493 22.493 0 0 0 51.106 14.578 Q 51.58 14.363 51.694 14.277 A 0.216 0.216 0 0 0 51.716 14.258 Q 52.107 14.16 52.448 14.502 A 4.955 4.955 0 0 1 52.953 15.096 A 5.693 5.693 0 0 1 53.083 15.283 A 4.013 4.013 0 0 1 53.379 15.805 A 3.3 3.3 0 0 1 53.523 16.162 A 10.98 10.98 0 0 1 53.572 16.315 Q 53.667 16.612 53.669 16.695 A 0.145 0.145 0 0 1 53.669 16.699 A 2.664 2.664 0 0 1 53.415 17.813 Q 53.248 18.18 52.97 18.547 A 4.968 4.968 0 0 1 52.888 18.652 A 10.62 10.62 0 0 1 51.425 20.143 A 12.137 12.137 0 0 1 51.032 20.459 A 33.704 33.704 0 0 1 48.835 22.021 A 17.391 17.391 0 0 0 48.186 22.465 Q 47.55 22.922 47.152 23.314 A 5.073 5.073 0 0 0 47.126 23.34 A 37.581 37.581 0 0 1 46.665 23.566 Q 45.953 23.91 44.735 24.473 A 300.433 300.433 0 0 1 44.441 24.609 A 707.232 707.232 0 0 1 42.475 25.513 A 844.039 844.039 0 0 1 40.388 26.465 A 844.039 844.039 0 0 0 38.3 27.417 A 707.232 707.232 0 0 0 36.335 28.32 A 256.51 256.51 0 0 0 35.453 28.729 Q 34.364 29.237 33.78 29.525 A 27.354 27.354 0 0 0 33.65 29.59 A 1.014 1.014 0 0 1 33.541 29.635 Q 33.358 29.701 32.996 29.784 A 14.809 14.809 0 0 1 32.771 29.834 Q 32.087 29.98 31.306 30.273 A 10.322 10.322 0 0 1 30.266 30.604 A 8.751 8.751 0 0 1 29.792 30.713 A 15.736 15.736 0 0 0 29.536 30.766 Q 29.023 30.878 28.864 30.957 Q 27.985 31.25 27.546 31.934 L 26.667 33.301 A 4.614 4.614 0 0 1 25.593 34.473 A 1.533 1.533 0 0 1 25.087 34.723 Q 24.505 34.895 23.603 34.767 A 6.627 6.627 0 0 1 23.591 34.766 A 0.399 0.399 0 0 0 23.532 34.72 Q 23.356 34.604 22.761 34.326 Q 22.105 34.02 21.88 33.831 A 0.719 0.719 0 0 1 21.833 33.789 Q 19.489 32.129 17.829 30.664 Q 16.169 29.199 14.802 27.783 Q 13.435 26.367 12.214 24.707 Q 11.033 23.1 9.531 21.128 A 375.547 375.547 0 0 0 9.431 20.996 A 4.194 4.194 0 0 1 7.771 21.436 A 31.683 31.683 0 0 1 6.013 21.484 A 31.683 31.683 0 0 0 4.255 21.533 A 4.859 4.859 0 0 0 2.827 21.838 A 5.696 5.696 0 0 0 2.497 21.973 A 9.934 9.934 0 0 1 2.13 22.009 Q 0.912 22.107 0.442 21.8 A 0.758 0.758 0 0 1 0.349 21.729 A 1.024 1.024 0 0 1 0.001 20.972 Q -0.007 20.757 0.056 20.508 A 2.685 2.685 0 0 1 0.271 19.948 Q 0.535 19.426 1.058 18.831 A 8.884 8.884 0 0 1 1.13 18.75 A 8.916 8.916 0 0 1 3.132 17.09 Q 4.255 16.406 5.573 16.113 Q 6.821 15.836 7.85 16.171 A 3.601 3.601 0 0 1 7.966 16.211 A 6.403 6.403 0 0 1 7.8 15.437 Q 7.657 14.473 7.882 13.677 A 3.345 3.345 0 0 1 8.064 13.184 A 2.064 2.064 0 0 1 9.556 12.004 A 3.752 3.752 0 0 1 10.407 11.914 A 9.184 9.184 0 0 1 11.337 11.959 A 7.19 7.19 0 0 1 12.019 12.061 A 1.594 1.594 0 0 1 13.079 12.787 A 2.108 2.108 0 0 1 13.142 12.891 A 15.358 15.358 0 0 0 14.098 12.261 Q 15.042 11.593 16.27 10.571 A 63.653 63.653 0 0 0 17.048 9.912 A 1046.405 1046.405 0 0 1 22.077 5.615 A 226.464 226.464 0 0 1 24.555 3.54 A 164.794 164.794 0 0 1 26.814 1.709 A 24.675 24.675 0 0 1 27.571 1.128 Q 28.754 0.26 29.402 0.06 A 1.178 1.178 0 0 1 29.743 0 A 4.726 4.726 0 0 1 29.945 0.005 Q 30.189 0.015 30.525 0.049 A 3.881 3.881 0 0 1 31.138 0.163 A 4.9 4.9 0 0 1 31.55 0.293 Q 32.087 0.488 32.429 0.732 A 0.793 0.793 0 0 1 32.758 1.283 A 1.211 1.211 0 0 1 32.771 1.465 Z M 26.521 9.57 L 25.544 9.57 A 59.014 59.014 0 0 0 23.31 11.182 A 51.789 51.789 0 0 0 22.614 11.719 Q 21.345 12.695 20.075 13.623 A 44.888 44.888 0 0 0 19.226 14.258 Q 18.875 14.527 18.575 14.771 A 19.77 19.77 0 0 0 18.025 15.234 L 17.732 15.527 A 1.717 1.717 0 0 1 17.652 15.602 Q 17.515 15.723 17.439 15.723 A 0.433 0.433 0 0 1 17.365 15.82 Q 17.173 16.023 16.56 16.406 A 21.428 21.428 0 0 0 16.246 16.606 Q 15.833 16.874 15.654 17.025 A 1.17 1.17 0 0 0 15.583 17.09 Q 16.267 18.555 16.902 19.922 A 15.821 15.821 0 0 0 18.415 22.51 A 10.261 10.261 0 0 0 20.382 24.582 A 9.715 9.715 0 0 0 20.417 24.609 A 5.028 5.028 0 0 0 22.169 25.482 A 6.638 6.638 0 0 0 23.2 25.684 A 280.205 280.205 0 0 1 23.361 24.503 Q 23.433 23.976 23.515 23.392 A 541.334 541.334 0 0 1 23.689 22.168 A 133.846 133.846 0 0 1 24.006 20.068 A 154.519 154.519 0 0 1 24.372 17.871 A 67.189 67.189 0 0 1 25.3 13.428 A 32.495 32.495 0 0 1 25.836 11.486 Q 26.157 10.452 26.521 9.57 Z M 26.236 8.408 A 1.014 1.014 0 0 0 26.228 8.545 A 0.975 0.975 0 0 0 26.239 8.7 Q 26.283 8.971 26.499 8.984 A 0.37 0.37 0 0 0 26.521 8.984 A 0.496 0.496 0 0 0 26.682 8.96 Q 26.911 8.881 26.911 8.545 A 0.72 0.72 0 0 0 26.894 8.379 Q 26.841 8.155 26.624 8.114 A 0.563 0.563 0 0 0 26.521 8.105 Q 26.278 8.105 26.236 8.408 Z"
            id="0" vector-effect="non-scaling-stroke" />
    </g>
</svg>