<svg width="49.482" height="49.61" viewBox="0 0 49.482 49.61" xmlns="http://www.w3.org/2000/svg">
    <g id="svgGroup" stroke-linecap="round" fill-rule="evenodd" font-size="9pt" stroke="#000" stroke-width="0.25mm"
        style="stroke:#000;stroke-width:0.25mm;fill:#000">
        <path
            d="M 18.037 32.422 L 20.478 23.34 A 3.91 3.91 0 0 1 20.6 23.117 Q 20.82 22.742 21.259 22.119 Q 21.845 21.289 21.845 20.703 L 21.845 20.41 A 0.136 0.136 0 0 0 21.829 20.349 Q 21.79 20.273 21.662 20.176 A 1.469 1.469 0 0 0 21.65 20.166 Q 21.464 20.027 21.367 20.02 A 0.14 0.14 0 0 0 21.357 20.02 L 19.599 20.02 A 25.056 25.056 0 0 1 16.587 20.736 A 32.983 32.983 0 0 1 13.886 21.094 A 50.6 50.6 0 0 1 9.235 21.314 A 45.818 45.818 0 0 1 7.734 21.289 A 40.559 40.559 0 0 1 5.451 21.153 Q 4.373 21.057 3.433 20.903 A 21.071 21.071 0 0 1 2.607 20.752 A 15.175 15.175 0 0 1 1.807 20.568 Q 0.626 20.258 0.209 19.886 A 0.843 0.843 0 0 1 0.068 19.727 A 0.393 0.393 0 0 1 0.005 19.571 Q -0.069 19.12 1.056 18.539 A 9.438 9.438 0 0 1 1.533 18.311 Q 3.388 17.481 8.564 16.602 A 1.447 1.447 0 0 0 8.727 16.59 Q 9.081 16.548 9.882 16.358 A 27.566 27.566 0 0 1 11.098 16.098 A 34.982 34.982 0 0 1 12.128 15.918 A 38.549 38.549 0 0 0 13.597 15.655 A 32.404 32.404 0 0 0 14.423 15.479 Q 15.498 15.235 15.791 15.235 A 2.299 2.299 0 0 1 16.004 15.194 Q 16.352 15.142 17.015 15.108 A 32.111 32.111 0 0 1 17.451 15.088 Q 18.72 15.039 20.039 14.942 A 35.183 35.183 0 0 1 22.117 14.847 A 31.212 31.212 0 0 1 22.578 14.844 L 24.287 14.844 L 24.775 14.258 L 32.392 1.465 A 2.025 2.025 0 0 1 32.919 0.872 Q 33.164 0.682 33.487 0.528 A 4.316 4.316 0 0 1 33.808 0.391 A 9.273 9.273 0 0 1 34.35 0.202 Q 34.998 0 35.419 0 Q 36.689 0 37.177 1.026 A 5.255 5.255 0 0 1 37.544 2.039 A 4.162 4.162 0 0 1 37.666 3.028 A 0.416 0.416 0 0 1 37.637 3.177 A 0.51 0.51 0 0 1 37.617 3.223 A 0.47 0.47 0 0 0 37.577 3.333 A 0.399 0.399 0 0 0 37.568 3.418 L 37.568 3.809 L 33.271 14.258 L 33.271 14.844 A 1.132 1.132 0 0 1 33.399 14.574 Q 33.596 14.278 33.955 14.259 A 0.943 0.943 0 0 1 34.003 14.258 L 34.834 14.258 A 4.541 4.541 0 0 1 36.954 14.796 A 5.96 5.96 0 0 1 37.666 15.235 A 3.346 3.346 0 0 1 38.576 16.18 Q 39.033 16.911 39.033 17.871 A 2.036 2.036 0 0 1 38.952 18.458 A 1.601 1.601 0 0 1 38.544 19.141 A 3.638 3.638 0 0 1 37.54 19.846 A 4.206 4.206 0 0 1 37.373 19.922 A 6.897 6.897 0 0 1 36.053 20.333 A 7.707 7.707 0 0 1 35.908 20.361 A 9.852 9.852 0 0 1 35.305 20.456 Q 35.019 20.492 34.765 20.503 A 5.139 5.139 0 0 1 34.541 20.508 A 8.313 8.313 0 0 1 32.965 20.363 A 7.269 7.269 0 0 1 32.343 20.215 A 7.717 7.717 0 0 0 30.652 19.936 A 9.008 9.008 0 0 0 30.146 19.922 Q 29.159 19.922 28.336 20.871 A 4.506 4.506 0 0 0 28.193 21.045 Q 27.314 22.168 26.582 23.975 A 22.296 22.296 0 0 0 25.835 26.146 A 28.57 28.57 0 0 0 25.361 28.028 Q 24.873 30.274 24.482 32.422 A 44.573 44.573 0 0 0 24.12 34.746 A 35.052 35.052 0 0 0 23.945 36.426 A 74.895 74.895 0 0 0 23.881 37.299 Q 23.798 38.526 23.798 39.258 A 11.226 11.226 0 0 0 23.801 39.466 Q 23.807 39.802 23.831 40.418 A 139.865 139.865 0 0 0 23.847 40.82 Q 23.887 41.778 23.894 42.214 A 10.289 10.289 0 0 1 23.896 42.383 Q 23.994 42.969 24.384 43.408 A 23.116 23.116 0 0 1 25.068 44.215 A 25.35 25.35 0 0 1 25.166 44.336 L 27.412 44.336 A 18.216 18.216 0 0 0 34.089 43.038 A 21.468 21.468 0 0 0 35.175 42.578 Q 39.033 40.82 42.451 38.574 A 0.567 0.567 0 0 0 42.543 38.512 Q 42.766 38.335 43.293 37.743 A 27.792 27.792 0 0 0 43.378 37.647 A 24.633 24.633 0 0 1 44.56 36.402 A 28.117 28.117 0 0 1 44.99 35.986 A 432.964 432.964 0 0 1 45.832 35.193 A 326.922 326.922 0 0 1 46.601 34.473 A 7.975 7.975 0 0 1 46.86 34.241 Q 47.271 33.89 47.506 33.812 A 0.388 0.388 0 0 1 47.627 33.789 A 1.407 1.407 0 0 1 48.404 34.03 Q 48.608 34.163 48.802 34.369 A 2.942 2.942 0 0 1 48.896 34.473 A 2.622 2.622 0 0 1 49.286 35.067 A 2.034 2.034 0 0 1 49.482 35.938 A 5.481 5.481 0 0 1 48.866 38.429 A 7.495 7.495 0 0 1 48.164 39.551 A 14.855 14.855 0 0 1 46.23 41.653 A 18.699 18.699 0 0 1 44.794 42.822 A 27.03 27.03 0 0 1 42.002 44.619 A 33.322 33.322 0 0 1 40.107 45.606 A 47.187 47.187 0 0 1 35.53 47.528 A 42.685 42.685 0 0 1 34.882 47.754 A 47.78 47.78 0 0 1 32.064 48.619 A 37.983 37.983 0 0 1 30 49.121 A 29.913 29.913 0 0 1 28.646 49.379 Q 27.247 49.61 26.24 49.61 A 12.008 12.008 0 0 1 24.134 49.417 A 13.964 13.964 0 0 1 23.408 49.268 A 8.117 8.117 0 0 1 21.221 48.422 A 7.528 7.528 0 0 1 20.771 48.145 Q 19.599 47.363 18.818 46.192 A 4.492 4.492 0 0 1 18.176 44.641 Q 18.037 44.003 18.037 43.262 L 18.037 32.422 Z"
            id="0" vector-effect="non-scaling-stroke" />
    </g>
</svg>