<svg width="77.832" height="36.328" viewBox="0 0 77.832 36.328" xmlns="http://www.w3.org/2000/svg">
    <g id="svgGroup" stroke-linecap="round" fill-rule="evenodd" font-size="9pt" stroke="#000" stroke-width="0.25mm"
        style="stroke:#000;stroke-width:0.25mm;fill:#000">
        <path
            d="M 14.356 4.785 L 14.356 5.371 L 9.57 16.797 Q 9.473 16.992 9.082 17.529 Q 8.692 18.066 8.692 18.262 L 8.692 18.652 A 10.067 10.067 0 0 0 8.585 18.933 Q 8.411 19.409 8.154 20.215 A 1328.709 1328.709 0 0 1 7.8 21.326 A 1610.119 1610.119 0 0 1 7.422 22.51 A 1610.119 1610.119 0 0 0 7.044 23.694 A 1328.709 1328.709 0 0 0 6.69 24.805 Q 6.394 25.734 6.281 26.152 A 6.406 6.406 0 0 0 6.25 26.27 A 2.642 2.642 0 0 0 6.148 26.591 Q 6.057 26.945 5.994 27.473 A 13.406 13.406 0 0 0 5.957 27.832 A 70.841 70.841 0 0 0 5.924 28.207 Q 5.862 28.933 5.86 29.181 A 1.978 1.978 0 0 0 5.859 29.199 A 1.362 1.362 0 0 0 5.865 29.31 Q 5.882 29.52 5.957 29.932 Q 6.055 30.469 6.25 30.664 Q 9.961 29.199 14.209 26.221 A 71.123 71.123 0 0 0 22.363 19.531 A 64.889 64.889 0 0 0 28.958 12.273 A 59.916 59.916 0 0 0 29.346 11.768 A 38.792 38.792 0 0 0 31.876 8.022 Q 33.032 6.06 33.788 4.159 A 23.745 23.745 0 0 0 33.887 3.906 Q 34.082 3.809 34.863 3.613 A 21.873 21.873 0 0 1 35.136 3.547 Q 35.54 3.451 35.732 3.427 A 0.885 0.885 0 0 1 35.84 3.418 L 36.084 3.418 L 36.328 3.418 A 2.036 2.036 0 0 1 37.693 3.944 A 3.01 3.01 0 0 1 38.037 4.297 A 3.771 3.771 0 0 1 38.462 4.915 Q 38.77 5.485 38.77 6.055 A 0.704 0.704 0 0 1 38.767 6.107 Q 38.761 6.191 38.737 6.345 A 9.061 9.061 0 0 1 38.721 6.445 Q 38.679 6.698 38.673 6.805 A 0.573 0.573 0 0 0 38.672 6.836 A 123.348 123.348 0 0 0 36.665 11.932 A 102.071 102.071 0 0 0 35.645 14.844 Q 34.375 18.652 34.375 23.047 A 38.803 38.803 0 0 0 34.389 24.135 Q 34.421 25.253 34.522 26.025 A 8.806 8.806 0 0 0 34.646 26.73 Q 34.81 27.492 35.137 28.535 A 38.13 38.13 0 0 0 35.352 29.199 Q 35.449 29.688 35.791 29.688 L 36.426 29.688 A 8.318 8.318 0 0 0 39.859 28.916 Q 40.977 28.414 42.096 27.584 A 15.019 15.019 0 0 0 42.285 27.441 A 26.04 26.04 0 0 0 46.535 23.306 A 30.378 30.378 0 0 0 47.608 21.924 A 32.011 32.011 0 0 0 51.465 15.039 A 24.44 24.44 0 0 0 52.329 12.556 Q 52.93 10.443 52.93 8.691 A 15.786 15.786 0 0 0 52.792 6.577 A 13.873 13.873 0 0 0 52.686 5.908 Q 52.442 4.59 52.442 3.223 A 3.999 3.999 0 0 1 52.695 1.784 A 3.715 3.715 0 0 1 53.125 0.977 A 2.184 2.184 0 0 1 54.714 0.022 A 2.991 2.991 0 0 1 55.078 0 A 2.839 2.839 0 0 1 56.591 0.441 A 3.495 3.495 0 0 1 56.738 0.537 A 13.049 13.049 0 0 1 58.206 1.715 A 14.25 14.25 0 0 1 58.252 1.758 A 18.388 18.388 0 0 0 59.766 3.027 A 5.57 5.57 0 0 0 61.524 3.906 L 65.186 3.906 L 67.236 3.906 A 6.058 6.058 0 0 0 67.746 3.886 Q 68.15 3.852 68.457 3.76 Q 68.945 3.613 69.629 3.271 A 70.385 70.385 0 0 1 70.004 3.085 Q 70.426 2.878 70.991 2.605 A 254.076 254.076 0 0 1 71.533 2.344 Q 72.754 1.758 74.805 0.781 Q 74.884 0.702 75.092 0.687 A 1.449 1.449 0 0 1 75.195 0.684 L 75.586 0.684 A 2.333 2.333 0 0 1 77.149 1.27 A 1.92 1.92 0 0 1 77.827 2.667 A 2.653 2.653 0 0 1 77.832 2.832 A 3.486 3.486 0 0 1 77.766 3.533 Q 77.676 3.971 77.464 4.309 A 2.004 2.004 0 0 1 77.295 4.541 A 4.695 4.695 0 0 1 76.168 5.502 A 5.412 5.412 0 0 1 75.977 5.615 A 11.372 11.372 0 0 1 74.726 6.218 A 13.211 13.211 0 0 1 74.268 6.396 Q 73.34 6.738 72.559 6.934 Q 70.313 7.813 69.092 8.154 A 88.391 88.391 0 0 1 68.518 8.313 Q 67.713 8.533 67.236 8.643 Q 66.602 8.789 66.211 8.838 A 4.858 4.858 0 0 1 65.949 8.863 Q 65.603 8.887 65.088 8.887 Q 64.356 8.887 63.135 8.936 A 38.181 38.181 0 0 0 62.46 8.969 Q 61.699 9.013 60.665 9.096 A 150.706 150.706 0 0 0 59.668 9.18 A 0.551 0.551 0 0 0 59.539 9.197 Q 59.41 9.228 59.237 9.317 A 2.78 2.78 0 0 0 59.131 9.375 Q 58.817 9.554 58.709 9.651 A 0.453 0.453 0 0 0 58.692 9.668 A 29.347 29.347 0 0 1 57.17 15.78 A 35.567 35.567 0 0 1 56.006 18.604 Q 53.906 23.145 50.586 26.904 A 27.708 27.708 0 0 1 42.92 33.008 A 18.983 18.983 0 0 1 35.343 35.294 A 18.481 18.481 0 0 1 33.887 35.352 A 2.303 2.303 0 0 1 32.586 34.941 A 3.352 3.352 0 0 1 32.08 34.521 A 9.481 9.481 0 0 1 30.695 32.751 A 10.565 10.565 0 0 1 30.615 32.617 Q 29.981 31.543 29.59 30.42 Q 29.274 29.511 29.15 28.954 A 4.586 4.586 0 0 1 29.102 28.711 Q 29.022 28.39 28.909 27.61 A 44.841 44.841 0 0 1 28.858 27.246 A 101.507 101.507 0 0 1 28.711 26.123 A 129.864 129.864 0 0 1 28.565 24.902 A 100.826 100.826 0 0 0 28.418 23.694 A 73.623 73.623 0 0 0 28.272 22.607 A 25.236 25.236 0 0 1 28.208 22.128 Q 28.148 21.647 28.132 21.323 A 4.514 4.514 0 0 1 28.125 21.094 A 61.095 61.095 0 0 1 26.723 22.522 Q 25.35 23.879 23.535 25.537 A 67.458 67.458 0 0 1 18.205 29.916 A 74.495 74.495 0 0 1 17.383 30.518 A 51.914 51.914 0 0 1 12.06 33.897 A 46.18 46.18 0 0 1 10.693 34.619 A 18.976 18.976 0 0 1 8.305 35.644 Q 7.034 36.082 5.866 36.24 A 9.538 9.538 0 0 1 4.59 36.328 A 5.709 5.709 0 0 1 3.249 36.181 A 3.371 3.371 0 0 1 1.026 34.57 Q 0 32.813 0 30.762 A 28.086 28.086 0 0 1 0.781 24.121 A 38.368 38.368 0 0 1 2.93 17.773 Q 3.809 14.453 4.883 11.572 Q 5.957 8.691 7.08 6.592 Q 8.203 4.492 9.375 3.271 Q 10.236 2.375 11.149 2.137 A 2.635 2.635 0 0 1 11.817 2.051 Q 12.755 2.051 13.347 2.451 A 1.908 1.908 0 0 1 13.721 2.783 A 2.464 2.464 0 0 1 14.23 3.761 Q 14.332 4.134 14.351 4.576 A 4.817 4.817 0 0 1 14.356 4.785 Z"
            id="0" vector-effect="non-scaling-stroke" />
    </g>
</svg>