<svg width="61.035" height="41.602" viewBox="0 0 61.035 41.602" xmlns="http://www.w3.org/2000/svg">
    <g id="svgGroup" stroke-linecap="round" fill-rule="evenodd" font-size="9pt" stroke="#000" stroke-width="0.25mm"
        style="stroke:#000;stroke-width:0.25mm;fill:#000">
        <path
            d="M 19.531 6.25 L 5.273 17.676 L 4.785 18.262 L 5.273 11.035 Q 6.836 9.863 8.887 7.959 Q 10.938 6.055 13.232 4.297 Q 15.527 2.539 17.92 1.27 A 11.726 11.726 0 0 1 20.058 0.38 A 8.715 8.715 0 0 1 22.559 0 A 5.695 5.695 0 0 1 23.569 0.084 Q 24.136 0.186 24.585 0.413 A 2.874 2.874 0 0 1 25.146 0.781 A 4.551 4.551 0 0 1 26.449 2.614 A 5.426 5.426 0 0 1 26.514 2.783 A 9.454 9.454 0 0 1 26.997 4.853 A 10.968 10.968 0 0 1 27.051 5.42 A 41.214 41.214 0 0 1 27.139 7.298 A 34.831 34.831 0 0 1 27.148 8.106 A 38.898 38.898 0 0 1 26.904 12.5 Q 26.66 14.649 26.66 16.699 L 26.66 17.285 A 27.317 27.317 0 0 0 27.112 17.053 Q 27.8 16.693 28.927 16.069 A 199.299 199.299 0 0 0 29.199 15.918 A 172.475 172.475 0 0 1 31.946 14.426 A 197.937 197.937 0 0 1 32.91 13.916 A 2087.819 2087.819 0 0 0 34.814 12.915 A 1785.544 1785.544 0 0 0 36.621 11.963 Q 38.379 11.035 39.16 10.547 Q 39.355 10.449 39.893 10.059 A 19.55 19.55 0 0 0 40.442 9.644 A 24.058 24.058 0 0 0 41.016 9.18 A 167.81 167.81 0 0 1 41.867 8.475 A 145.542 145.542 0 0 1 42.139 8.252 Q 42.676 7.813 42.871 7.715 L 43.457 7.715 A 1.655 1.655 0 0 1 43.92 7.785 Q 44.119 7.843 44.331 7.949 A 3.391 3.391 0 0 1 44.531 8.057 A 5.269 5.269 0 0 1 45.605 8.887 A 6.197 6.197 0 0 1 46.279 9.68 A 5.523 5.523 0 0 1 46.436 9.912 A 2.196 2.196 0 0 1 46.717 10.55 A 1.958 1.958 0 0 1 46.777 11.035 A 2.283 2.283 0 0 1 46.765 11.265 Q 46.753 11.375 46.732 11.501 A 5.324 5.324 0 0 1 46.68 11.768 Q 46.598 12.135 46.38 12.332 A 0.788 0.788 0 0 1 46.289 12.402 L 26.66 23.438 A 2.02 2.02 0 0 0 26.449 23.558 Q 26.084 23.8 26.123 24.072 A 3.6 3.6 0 0 1 26.147 24.292 Q 26.172 24.606 26.172 25.098 Q 26.172 26.888 26.618 28.179 A 5.654 5.654 0 0 0 27.002 29.053 A 7.027 7.027 0 0 0 28.23 30.697 A 6.262 6.262 0 0 0 29.15 31.445 A 7.399 7.399 0 0 0 30.819 32.264 A 10.105 10.105 0 0 0 32.373 32.666 A 21.937 21.937 0 0 0 35.237 32.981 A 25.756 25.756 0 0 0 36.426 33.008 A 14.603 14.603 0 0 0 37.964 32.922 A 19.76 19.76 0 0 0 39.648 32.666 A 14.921 14.921 0 0 1 41.125 32.452 Q 41.683 32.4 42.206 32.4 A 10.005 10.005 0 0 1 42.871 32.422 Q 43.321 32.332 44.309 32.076 A 87.475 87.475 0 0 0 44.482 32.031 A 68.204 68.204 0 0 0 45.654 31.714 A 87.921 87.921 0 0 0 46.924 31.348 Q 48.242 30.957 49.414 30.615 Q 50.428 30.32 50.857 30.133 A 2.436 2.436 0 0 0 50.977 30.078 Q 51.501 29.816 52.159 29.355 A 18.127 18.127 0 0 0 52.832 28.858 Q 53.906 28.027 55.029 27.1 Q 56.152 26.172 57.275 25.488 Q 58.165 24.947 58.963 24.834 A 2.948 2.948 0 0 1 59.375 24.805 A 2.39 2.39 0 0 1 60.032 24.887 Q 60.769 25.098 60.964 25.85 A 2.446 2.446 0 0 1 61.035 26.465 A 4.503 4.503 0 0 1 60.201 29.058 A 6.356 6.356 0 0 1 59.521 29.883 A 14.952 14.952 0 0 1 57.693 31.474 A 20.139 20.139 0 0 1 55.713 32.764 A 28.828 28.828 0 0 1 52.327 34.415 A 34.026 34.026 0 0 1 50.635 35.059 Q 47.852 36.035 45.117 36.768 A 58.034 58.034 0 0 1 42.827 37.334 Q 41.685 37.59 40.655 37.765 A 33.983 33.983 0 0 1 40.186 37.842 A 45.579 45.579 0 0 1 39.151 37.991 Q 38.036 38.139 37.26 38.173 A 10.033 10.033 0 0 1 36.816 38.184 A 35.841 35.841 0 0 1 32.681 37.953 A 30.873 30.873 0 0 1 30.908 37.695 Q 28.125 37.207 25.928 35.938 A 11.829 11.829 0 0 1 22.217 32.568 A 11.312 11.312 0 0 1 20.98 30.332 Q 20.513 29.223 20.19 27.904 A 20.583 20.583 0 0 1 20.02 27.149 A 52.431 52.431 0 0 0 11.603 32.735 A 58.6 58.6 0 0 0 10.449 33.692 A 148.729 148.729 0 0 0 3.949 39.551 A 130.479 130.479 0 0 0 1.953 41.504 Q 1.855 41.602 1.758 41.602 L 1.465 41.602 Q 0.586 41.602 0.293 40.967 A 3.197 3.197 0 0 1 0.018 39.932 A 3.896 3.896 0 0 1 0 39.551 L 0 38.623 A 0.925 0.925 0 0 1 0.087 38.244 Q 0.15 38.102 0.259 37.956 A 2.448 2.448 0 0 1 0.488 37.695 A 170.443 170.443 0 0 1 2.856 35.095 A 130.875 130.875 0 0 1 5.078 32.764 A 55.711 55.711 0 0 1 8.602 29.451 A 49.666 49.666 0 0 1 9.424 28.76 A 98.826 98.826 0 0 1 13.965 25.244 A 574.86 574.86 0 0 1 16.406 23.474 A 716.62 716.62 0 0 1 19.043 21.582 A 0.746 0.746 0 0 0 19.15 21.515 Q 19.316 21.393 19.558 21.119 A 6.33 6.33 0 0 0 19.58 21.094 A 7.749 7.749 0 0 0 19.736 20.911 Q 19.945 20.656 20.019 20.51 A 0.818 0.818 0 0 0 20.02 20.508 Q 20.169 19.835 20.376 18.79 A 165.272 165.272 0 0 0 20.508 18.115 A 38.146 38.146 0 0 0 20.836 16.128 A 46.823 46.823 0 0 0 20.996 14.844 Q 21.191 13.086 21.387 11.279 Q 21.58 9.487 21.582 8.031 A 21.849 21.849 0 0 0 21.582 8.008 Q 21.582 7.422 21.533 6.69 A 0.929 0.929 0 0 0 21.363 6.191 Q 21.134 5.879 20.605 5.762 Q 20.508 5.762 20.117 5.957 L 19.531 6.25 Z"
            id="0" vector-effect="non-scaling-stroke" />
    </g>
</svg>