<svg width="69.824" height="88.672" viewBox="0 0 69.824 88.672" xmlns="http://www.w3.org/2000/svg">
    <g id="svgGroup" stroke-linecap="round" fill-rule="evenodd" font-size="9pt" stroke="#000" stroke-width="0.25mm"
        style="stroke:#000;stroke-width:0.25mm;fill:#000">
        <path
            d="M 16.797 30.371 L 16.797 29.493 L 25.879 11.036 A 8.385 8.385 0 0 0 26.611 8.399 A 25.518 25.518 0 0 0 26.749 6.403 A 22.654 22.654 0 0 0 26.758 5.762 A 8.552 8.552 0 0 0 25.526 5.858 Q 24.909 5.948 24.222 6.123 A 16.779 16.779 0 0 0 23.584 6.299 A 5.576 5.576 0 0 0 22.519 6.731 Q 21.885 7.073 21.469 7.559 A 3.091 3.091 0 0 0 21.094 8.106 L 6.348 20.02 A 4.374 4.374 0 0 0 5.234 20.52 A 5.063 5.063 0 0 0 5.029 20.655 Q 4.395 21.094 3.857 21.582 Q 3.32 22.071 2.734 22.461 Q 2.148 22.852 1.465 22.852 A 1.535 1.535 0 0 1 0.98 22.779 A 1.243 1.243 0 0 1 0.391 22.364 A 1.778 1.778 0 0 1 0.006 21.36 A 2.272 2.272 0 0 1 0 21.192 Q 0 19.839 0.813 17.816 A 18.871 18.871 0 0 1 0.83 17.774 Q 1.66 15.723 3.027 14.844 A 14.667 14.667 0 0 1 3.5 14.45 Q 4.333 13.782 5.908 12.647 A 606.65 606.65 0 0 1 8.069 11.097 A 709.011 709.011 0 0 1 10.352 9.473 A 709.011 709.011 0 0 0 12.634 7.85 A 606.65 606.65 0 0 0 14.795 6.299 A 89.989 89.989 0 0 1 15.74 5.626 Q 16.907 4.808 17.563 4.418 A 8.531 8.531 0 0 1 17.773 4.297 Q 19.409 3.152 21.695 1.939 A 58.621 58.621 0 0 1 22.607 1.465 A 14.326 14.326 0 0 1 25.276 0.414 A 11.014 11.014 0 0 1 28.223 0 Q 30.107 0 31.208 1.484 A 4.761 4.761 0 0 1 31.396 1.758 A 7.352 7.352 0 0 1 32.254 3.59 A 6.13 6.13 0 0 1 32.52 5.371 A 19.425 19.425 0 0 1 31.104 12.696 Q 29.688 16.211 28.223 19.532 L 28.516 19.532 L 28.613 19.532 Q 28.854 19.532 29.456 19.433 A 23.232 23.232 0 0 0 29.736 19.385 A 49.417 49.417 0 0 1 30.615 19.239 A 67.275 67.275 0 0 1 31.592 19.092 A 24.607 24.607 0 0 0 32.568 18.934 A 18.385 18.385 0 0 0 33.447 18.75 A 25.873 25.873 0 0 1 33.736 18.684 Q 34.304 18.557 34.467 18.555 A 0.417 0.417 0 0 1 34.473 18.555 L 34.863 18.555 Q 37.152 18.555 38.766 19.388 A 6.176 6.176 0 0 1 39.111 19.58 A 10.617 10.617 0 0 1 42.041 22.168 A 12.065 12.065 0 0 1 43.544 24.692 A 14.548 14.548 0 0 1 43.994 25.83 Q 44.727 27.93 45.41 29.981 A 579.083 579.083 0 0 1 46.667 28.913 Q 48.462 27.393 49.707 26.368 Q 51.367 25 52.49 24.17 A 280.592 280.592 0 0 1 53.426 23.481 Q 53.855 23.167 54.24 22.888 A 162.164 162.164 0 0 1 54.492 22.705 A 23.637 23.637 0 0 1 55.327 22.131 Q 55.761 21.846 56.255 21.542 A 41.799 41.799 0 0 1 56.592 21.338 A 36.81 36.81 0 0 0 57.539 20.749 Q 57.991 20.458 58.499 20.117 A 81.871 81.871 0 0 0 59.57 19.385 Q 60.916 18.451 62.892 16.972 A 243.476 243.476 0 0 0 64.16 16.016 Q 64.81 15.645 65.812 15.141 A 64.532 64.532 0 0 1 65.918 15.088 A 5.173 5.173 0 0 1 67.126 14.654 A 4.387 4.387 0 0 1 68.066 14.551 A 1.096 1.096 0 0 1 68.732 14.785 Q 69.027 15.004 69.287 15.43 Q 69.64 16.007 69.761 16.5 A 2.065 2.065 0 0 1 69.824 16.993 A 2.549 2.549 0 0 1 69.309 18.523 A 3.57 3.57 0 0 1 68.945 18.946 L 57.52 27.051 L 46.289 36.133 L 45.898 37.11 A 64.133 64.133 0 0 0 45.845 37.733 Q 45.753 38.87 45.605 41.016 A 609.546 609.546 0 0 1 45.398 43.921 A 707.193 707.193 0 0 1 45.166 46.973 A 587.39 587.39 0 0 1 44.922 50 A 481.528 481.528 0 0 1 44.678 52.832 A 1734.478 1734.478 0 0 0 44.565 54.102 Q 44.426 55.674 44.352 56.544 A 199.134 199.134 0 0 0 44.336 56.739 Q 44.141 59.766 43.115 63.282 A 55.739 55.739 0 0 1 40.527 70.313 Q 38.965 73.829 36.768 77.149 A 34.029 34.029 0 0 1 32.875 82.029 A 30.696 30.696 0 0 1 31.885 83.008 A 23.47 23.47 0 0 1 25.977 87.11 Q 22.754 88.672 19.141 88.672 A 9.5 9.5 0 0 1 17.114 88.465 A 7.574 7.574 0 0 1 15.332 87.842 A 4.153 4.153 0 0 1 13.622 86.225 Q 13.264 85.632 13.021 84.872 A 8.057 8.057 0 0 1 12.988 84.766 Q 12.891 84.375 12.842 83.35 A 73.949 73.949 0 0 1 12.82 82.871 Q 12.793 82.203 12.793 81.836 A 22.363 22.363 0 0 1 13.148 77.931 A 25.544 25.544 0 0 1 13.33 77.002 A 36.001 36.001 0 0 1 14.795 72.022 A 52.869 52.869 0 0 1 16.846 67.237 A 64.198 64.198 0 0 1 19.238 62.793 A 256.665 256.665 0 0 1 23.45 55.727 A 235.347 235.347 0 0 1 23.73 55.274 A 115.364 115.364 0 0 1 28.467 48.243 Q 30.957 44.825 33.691 41.602 A 105.156 105.156 0 0 1 38.457 36.365 A 117.78 117.78 0 0 1 39.648 35.157 Q 39.648 35.073 39.684 34.704 A 41.427 41.427 0 0 1 39.697 34.571 A 19.586 19.586 0 0 0 39.718 34.347 Q 39.743 34.067 39.746 33.92 A 1.857 1.857 0 0 0 39.746 33.887 A 16.079 16.079 0 0 0 39.699 32.702 Q 39.654 32.094 39.566 31.417 A 28.9 28.9 0 0 0 39.502 30.957 A 16.004 16.004 0 0 0 38.912 28.389 A 14.446 14.446 0 0 0 38.721 27.832 A 6.904 6.904 0 0 0 37.109 25.293 A 3.578 3.578 0 0 0 34.521 24.219 A 4.517 4.517 0 0 0 34.473 24.219 A 14.773 14.773 0 0 0 32.393 24.359 A 10.843 10.843 0 0 0 30.322 24.854 Q 28.516 25.489 26.953 26.661 A 25.038 25.038 0 0 0 23.975 29.297 A 90.718 90.718 0 0 0 21.823 31.604 A 102.686 102.686 0 0 0 21.094 32.422 A 5.559 5.559 0 0 1 20.602 32.608 Q 20.209 32.734 19.873 32.764 A 11.245 11.245 0 0 1 19.337 32.799 Q 19.056 32.811 18.742 32.813 A 18.746 18.746 0 0 1 18.652 32.813 A 3.097 3.097 0 0 1 18.133 32.773 Q 17.863 32.727 17.657 32.628 A 1.084 1.084 0 0 1 17.139 32.129 Q 16.864 31.58 16.81 30.778 A 6.065 6.065 0 0 1 16.797 30.371 Z M 39.648 43.262 L 36.719 46.192 A 34.195 34.195 0 0 1 36.435 46.582 Q 35.974 47.209 35.19 48.232 A 230.824 230.824 0 0 1 35.107 48.34 L 32.861 51.27 A 91.555 91.555 0 0 0 31.534 53.044 A 74.638 74.638 0 0 0 30.811 54.053 A 58.809 58.809 0 0 1 30.485 54.511 Q 29.99 55.201 29.732 55.506 A 2.606 2.606 0 0 1 29.59 55.664 A 242.027 242.027 0 0 1 25.537 62.305 Q 23.438 65.625 21.777 69.141 Q 20.117 72.657 19.043 76.319 A 27.096 27.096 0 0 0 17.969 83.985 Q 22.656 83.985 25.879 80.86 A 42.543 42.543 0 0 0 33.09 72.284 A 36.143 36.143 0 0 0 36.67 64.844 A 55.981 55.981 0 0 0 39.446 51.794 A 68.358 68.358 0 0 0 39.746 45.313 A 5.843 5.843 0 0 0 39.743 45.14 Q 39.735 44.869 39.705 44.401 A 51.394 51.394 0 0 0 39.697 44.288 A 43.743 43.743 0 0 1 39.676 43.951 Q 39.651 43.532 39.649 43.311 A 4.177 4.177 0 0 1 39.648 43.262 Z"
            id="0" vector-effect="non-scaling-stroke" />
    </g>
</svg>